<svg version="1" xmlns="http://www.w3.org/2000/svg" width="2666.667" height="2666.667" viewBox="0 0 2000.000000 2000.000000"><path d="M441.9 112.4c-.2.2-5.1.6-10.9 1-5.8.3-12.3.8-14.5 1.1-2.2.2-8.3.9-13.5 1.5-5.2.6-13.3 1.8-18 2.5-4.7.8-10.3 1.7-12.5 2-2.2.3-4.6.8-5.4 1.1-.8.2-3 .7-5 1-14.8 2.3-59.9 15.3-72.8 21-1.7.8-3.4 1.4-3.8 1.4-1 0-25.4 10.5-32.1 13.8-7.8 3.9-21.5 11-23.4 12.2-.8.5-5.7 3.4-10.8 6.5-29.2 17.4-53 36.1-79.2 62.4-12.7 12.8-33.2 36.7-40 46.7-.8 1.2-4 5.7-7 10-6.9 9.8-17 25.8-17 26.9 0 .5-.6 1.6-1.4 2.4-1.7 2-5.8 9.6-12.9 23.6-12.9 25.9-22.6 50-32.6 81.5-7.2 22.9-17.6 69.5-20.5 92-.9 7.2-1.8 13.6-2.2 15.5-.2 1-.6 4.9-.9 8.5-.3 3.6-.8 7.4-1 8.5-.2 1.1-.7 5.8-1 10.5-.4 4.7-.8 9.6-1 11-2.6 16.8-2.6 100.3 0 130.5.1 2.2.6 7.6.9 12 .4 4.4.9 9.1 1.1 10.5.2 1.4.6 5.6 1 9.3.3 3.7.8 7.6 1 8.5.1.9.6 4.6 1 8.2.4 3.6.8 6.7 1 7 .2.3.6 3.4 1 7s.8 6.7 1 7c.2.3.6 2.6 1 5 .9 6.3 1.2 8.3 3 17 .2 1.4.7 4.1 1 6 2.2 13.5 10.7 49.3 18.4 77.5 16.7 60.9 50 142.2 83.9 204.5 1.9 3.6 4.7 8.7 6.2 11.5 6.5 12.3 28.2 49 33.2 56.2 10.3 15.1 25.8 26.5 39.6 29 6.4 1.2 18.5.6 24.7-1.2 23.2-6.8 47.2-26.8 65.5-54.5 6.9-10.5 11.2-19.3 21.9-44.5 4-9.4 7.8-18.4 8.5-20 .7-1.7 3.9-9.5 7.1-17.5 3.1-8 6.1-15.4 6.6-16.5.8-1.8 5.4-13.8 15.4-39.5 9.2-24 16.8-45 20.1-56.3 6.8-23 13.3-54.9 16.9-83.1 1.4-10.9 10.2-18.7 20.5-18.1 12.7.7 21.9 11 28.8 32.2 1.8 5.5 2.5 9.3 3.8 19.8.5 4.4.5 28.1 0 29.6-.3.8-.7 4-1 7.2-.6 5.9-2.2 15.5-5.7 33.2-1.1 5.5-2.2 11.8-2.5 14-.3 2.2-.7 4.6-.9 5.3-.3.7-.7 4-1.1 7.5-.3 3.4-.9 8.9-1.3 12.2-.9 7.5-.6 29.1.4 36.5.9 6.7 1.6 8.2 5 10 2.3 1.3 3.5 1.2 9.3-.4 3.7-.9 7.5-1.9 8.5-2.1 1-.2 8.4-2.3 16.5-4.5 41.3-11.7 68.6-21.6 92.7-33.8 17.4-8.8 27.4-15.2 53-33.7 21.7-15.7 57.4-40.5 69.5-48.3 11.5-7.3 30.9-19.7 33.8-21.3 60.5-36 99.2-50.4 119.5-44.5 10.1 2.9 15.9 11.4 15.6 22.6-.4 12.2-4.9 21.1-16.4 32.6-6.7 6.8-21.2 18.4-23 18.4-.7 0-34.6 22.7-50.5 33.9-31 21.7-78.2 56.7-91 67.4-.8.7-4.4 3.7-8 6.6-11.2 9.3-19.1 16.4-26.4 23.6-10.5 10.4-12.3 12.7-13.1 16.2-.6 2.8-.2 3.7 2.3 6.2 2.3 2.4 3.5 2.9 6.7 2.5 3.8-.3 17.2-5 19-6.5.5-.5 1.5-.9 2.1-.9.7 0 4.3-1.4 8.1-3.1 3.7-1.7 8.6-3.9 10.8-4.9 2.2-1 6.5-2.9 9.5-4.3s9.8-4.5 15-7c5.2-2.4 12-5.6 15-7 15-6.9 60.5-29.1 123.5-60.2 55.5-27.4 63.4-31 73.3-33 15.9-3.3 30.9 1.7 37.9 12.8 5.8 9.2 6.3 20.9 1 26.8-10.9 12.2-60.9 45.1-123.2 80.9-1.6 1-17.4 10.2-35 20.5s-33.8 19.7-36 21c-4 2.2-18.6 10.8-21.5 12.5-3.6 2.3-21.6 12.7-23 13.4-.8.4-2.4 1.2-3.5 1.9s-8 4.7-15.3 9.1c-7.3 4.3-13.9 8.7-14.6 9.8-2 2.8-.6 7 2.6 7.9 2.7.7 11.4-.7 25.6-4.2 4.8-1.2 9.8-2.3 11.1-2.6 1.4-.2 2.8-.6 3.3-.9.4-.3 1.6-.7 2.5-.9 1-.1 6.8-1.7 12.8-3.5 6.1-1.8 11.7-3.3 12.5-3.5 1.9-.4 44-13.4 46-14.2.8-.3 2-.7 2.5-.9 2.5-.6 45.8-15.2 71-23.9 42.1-14.5 59.7-20.5 62.5-21 1.4-.2 4.9-.9 7.9-1.5 9.2-1.7 17-1.3 22.7 1.4 5.8 2.7 9.1 6.5 13 15 4.7 10.3 2.4 19.3-7.2 29-12.6 12.6-26.4 20-87.9 47.1-15.9 7-67.2 28.5-68 28.5-.3 0-2.4.9-4.8 1.9-10.2 4.7-29.9 11.9-60.4 22.1-35.5 11.8-38.3 13.2-38.3 19.1.1 6.9 4.7 9.2 16.8 8.4 7.6-.5 14.5-1.3 17.2-2 .8-.2 3.1-.7 5-1 7.9-1.3 26.8-5.9 48-11.5 12.4-3.4 23.6-6.3 25-6.6 1.4-.2 3.6-.9 5-1.4 2.3-.8 36.6-9.6 41.5-10.6 1.1-.2 4.4-.9 7.4-1.5 18-3.7 31.7-4.3 38.2-1.5 7.7 3.2 13.1 10.9 13.5 19.2.2 4.4-.2 5.9-3.1 10.2-1.9 2.7-5.3 6.5-7.7 8.4-4 3.2-6.2 4.6-15.6 10-15.1 8.5-59.7 23.2-95.2 31.3-.8.2-6.7 1.6-13 3-6.3 1.5-12.6 2.9-14 3.1-1.4.3-4.3 1-6.5 1.5s-5.1 1.2-6.5 1.5c-1.4.3-6.5 1.4-11.5 2.5-4.9 1.1-10.1 2.2-11.5 2.5-1.4.3-3.8.9-5.5 1.4-1.6.5-5.5 1.6-8.5 2.4-15.9 4.2-39.4 12.5-65.3 23-31.9 13-55.6 21.9-85.2 32.1-31.8 10.9-75 22.3-102 26.9-7.7 1.3-16.5 2.6-21.5 3.1-3 .3-8.9.9-13 1.4-8.1.9-44.5.7-60.5-.4l-9.9-.6 2.4 2.7c14.3 15.5 72.5 71.4 92.2 88.5 1 .9 5.5 5 10.1 9.2 4.5 4.1 10 9 12.2 10.8 2.2 1.9 5.6 4.8 7.5 6.5 6.8 6.1 30.1 25.9 43 36.5 3.6 2.9 6.7 5.5 7 5.9.3.3 3.9 3.2 8 6.5 4.1 3.2 7.7 6.2 8 6.5.3.3 4.8 3.9 10 8s10.2 8.1 11 8.7c11.5 9.5 76.2 58.3 91.9 69.3 18.2 12.8 32.9 23.2 34.1 24.2 1.9 1.6 89.9 60.2 97.6 65 3.2 2 10 6.2 14.9 9.4 11.4 7.2 20 12.5 50.5 30.8 13.5 8 25.2 15.1 26 15.6.8.6 2.2 1.3 3 1.7.8.3 3.8 2.1 6.5 3.8 2.8 1.7 7.5 4.5 10.5 6.2 3 1.7 10.2 5.7 16 9 5.8 3.3 13 7.4 16 9 3 1.7 9.3 5.2 14 7.8 4.7 2.6 13.2 7.2 19 10.3 5.8 3 11.7 6.4 13.3 7.4 1.5 1.1 2.7 1.7 2.7 1.4 0-.3 2.3.8 5 2.4 6.6 3.9 9.3 4.5 12.2 2.7 1.2-.8 6.6-3.7 11.8-6.4 5.2-2.8 12-6.4 15-8 3-1.7 9.1-5 13.5-7.3 4.4-2.4 11.2-6.1 15-8.3 3.9-2.2 9-5.1 11.5-6.5 2.5-1.3 9.2-5.2 15-8.5 5.8-3.3 12-6.8 13.8-7.9 1.7-1 4.7-2.6 6.5-3.7 8.5-4.8 52.9-31.4 58.7-35.1.8-.5 12.1-7.6 25-15.6 12.9-8.1 28-17.6 33.5-21.2 63.9-41.7 108.9-73.2 162-113.2 23.2-17.5 45.7-34.8 49-37.8 1.1-1 3.8-3.1 6-4.8 2.2-1.6 4.2-3.1 4.5-3.4.3-.3 6.8-5.7 14.5-11.9s16-13 18.5-15.1c11.5-9.6 48.6-41.4 49.5-42.4.6-.6 4.4-4 8.5-7.6 4.1-3.5 7.7-6.7 8-7 .3-.3 3-2.8 6-5.5 40.2-36.4 95.6-91.1 124.2-122.6 1.2-1.4 6.1-6.7 10.8-11.8 4.7-5.2 9.3-10.3 10.3-11.5 1-1.1 4.5-5 7.6-8.6 3.2-3.6 7.1-8.1 8.7-10 1.6-1.9 3.5-4.2 4.3-5 .8-.8 6.9-8 13.5-16 6.7-8 12.3-14.7 12.6-15 .3-.3 2.1-2.5 4-5s3.9-5 4.5-5.6c.5-.6 2.1-2.6 3.5-4.4 1.4-1.8 3-3.8 3.6-4.4.5-.6 8-10.3 16.5-21.6 41.7-55.1 73.8-104 105.7-161 31.5-56.6 60.6-123.2 80.5-184.5 6-18.4 16.7-55.9 18.3-63.8.2-1 .5-2.6.8-3.5.3-.9.7-2.8 1-4.2.2-1.4 1.2-5.7 2.1-9.5 1.8-7.9 5.3-24.4 6.1-29 .2-1.7 1.1-6.4 1.8-10.5 2.1-11.2 2.6-14.1 3.3-18.5.3-2.2 1.1-7.6 1.8-12 1.9-11.5 2.1-168.3.3-166.3-.7.7-3.8 4.2-6.8 7.8-3 3.5-6.5 7.6-7.7 9-10.2 11.8-17.4 21.5-30.1 40.3-16.3 24.3-23.3 34-35.5 49.5-17.9 22.7-51.6 57.3-75.2 77.3-2.2 1.9-4.4 3.9-5 4.5-.5.6-3.7 3.3-7 6s-7.3 6.1-9 7.5c-5.3 4.7-28.5 22.8-44 34.4-16.4 12.2-17.3 12.8-43.8 31.2-22.8 15.8-44.4 32-61.2 45.9-13.7 11.3-17.4 14.7-39.4 36.2-11 10.8-26.7 25.9-47.6 45.7-23 21.8-55.9 48.4-75.1 60.7-13.9 8.9-15.2 9.6-25.4 14.2-12.3 5.5-23.9 6.9-31.3 3.7-12.3-5.3-17.8-23-11.2-36.5 5.1-10.4 25.4-32.3 53.9-58.1 5.5-5 10.7-9.7 11.6-10.5.9-.8 3.4-3 5.5-4.9 8.1-7 36.2-32 45-40.1 10.2-9.3 34.8-34.2 39.6-40 12.6-15.2 15.1-22.8 9-28.2-5.1-4.6-9-3.9-18 2.9-7 5.4-22.7 17.7-26.1 20.6-.8.7-3.3 2.6-5.5 4.2-2.2 1.7-4.6 3.6-5.3 4.3-1.8 1.6-31.2 23.9-36.5 27.6-2.3 1.6-8.5 5.9-13.7 9.6-18.3 12.9-83.7 56.7-102.3 68.6-4.2 2.7-10.3 6.6-13.5 8.6-26.6 17.1-44.8 27.3-58.9 32.9-13 5.2-16.4 6-26.3 6.4-8 .3-10.2.1-13.7-1.7-11.1-5.3-19.7-19.2-19.5-31.3.2-15.1 10.3-26.9 47.5-55.7 88.2-68.3 115.1-89.5 149.1-117.8 26.5-22.1 65.4-58 68.8-63.5 2.3-3.8 2.3-5.7 0-8.4-3.5-4.4-5.9-3.5-49.9 18.4-71.4 35.6-185.4 92-194.3 96.2-20.2 9.7-29.4 13.9-43 20-8 3.5-15.8 7-17.5 7.8-1.6.7-5.2 2.3-7.9 3.5-16.2 7.3-41.6 15.9-48.8 16.7-4.9.5-6.6.2-11.1-2.1-10.9-5.3-19.2-18.9-19.1-31.1 0-4 2-12 4.2-17 4.6-10.6 12.1-18.7 26.2-28.2 8.5-5.7 59.7-36.3 60.8-36.3.3 0 1.3-.6 2.1-1.4.9-.7 4.1-2.7 7.1-4.3 5.2-2.9 12-6.9 16.5-9.6 3.6-2.2 9.6-5.8 12.8-7.6 3.4-1.9 62.1-36.6 64.7-38.2.8-.5 12.2-7.3 25.2-15.2 28.1-16.9 44.5-26.8 51.3-31.2 2.8-1.7 8.8-5.6 13.5-8.5 15.1-9.5 28.5-18.4 28.8-19.2.2-.5.8-.8 1.3-.8.6 0 1.5-.4 2.2-1 .7-.5 4.4-3.4 8.2-6.4 9-6.9 11.1-11 8.4-16.9-1.7-3.7-5.7-5.6-11.4-5.2-6 .4-23.4 3.9-32.5 6.5-3.6 1-11.4 3.3-17.5 5-19.6 5.6-44.1 13.8-76.5 25.5-24 8.7-57.2 21.2-62.5 23.6-1.1.4-12.7 5.1-25.8 10.4-13.1 5.3-26.2 10.7-29.2 12-2.9 1.4-5.6 2.5-5.9 2.5-.2 0-2.6 1-5.3 2.2-2.6 1.2-5 2.2-5.3 2.3-.3.1-2.5 1.1-5 2.2-21.2 9.6-23.6 10.5-36.5 13.7-9.7 2.4-11.5 2.7-21 2.6-14.5 0-25.5-4-33.8-12.2-9.4-9.4-10.5-20.2-3.3-33.8 15-28.4 80.4-68.8 176.1-108.9 5.5-2.3 11.4-4.8 13-5.5 9.4-4.1 60.3-24.4 74.5-29.6 8-3 25.2-9.5 28.5-10.9 9.4-3.9 26.3-11.7 27.6-12.8.8-.7 1.9-1.3 2.2-1.3 2.3 0 27.1-15.3 47.2-29 5.5-3.8 30.9-23.5 37.6-29.2 16.1-13.6 27.6-23.5 29-24.8.8-.8 4.9-4.4 9-8 13.9-12.1 16.9-15.4 16.9-18.8 0-4.7-1.6-7.3-7.8-12.3-21.6-17.5-43.2-29.2-88.7-47.9-32.1-13.2-49.6-22.6-66-35.5-16-12.6-25.5-23.8-32.6-38.3-6.9-13.9-6.1-26.1 2.1-35.5 7.5-8.5 18.1-9.8 31-3.9 3.6 1.6 9.9 4.5 14 6.4 34.9 16.2 69.2 28.8 100.5 36.7 11.2 2.8 41 9.7 46.5 10.8 1.3.2 6 1.3 10.5 2.3 4.5 1 9.2 2.1 10.5 2.3 1.4.3 5.7 1.2 9.5 2.1 10.7 2.6 14.7 3.4 18.5 4.1 1.9.3 5.1 1 7 1.5 1.9.5 9.1 2.1 16 3.5 6.9 1.5 13.4 2.8 14.5 3 1 .3 3.7.7 5.9 1.1 2.2.3 4.3.7 4.7.9.3.2 3.2.8 6.5 1.4 3.2.5 10.9 1.9 16.9 3 6.1 1.1 13 2.2 15.5 2.6 2.5.3 5.6.8 7 1 5.3 1.1 6.7 1.3 13 2 9 1.1 23.8.6 32-1 1.3-.2 4.2-.7 6.5-1 2.2-.4 5.8-1.1 8-1.7 2.2-.5 4.7-1.2 5.5-1.3 5.5-1.3 19.9-6 27.2-8.9 59.4-24 78.9-59.2 52.5-94.6-6.2-8.2-6.5-8.6-16.7-16.8-5.2-4.2-9.7-7.9-10-8.3-.3-.3-6.3-4.7-13.4-9.6-30.1-21.1-63.9-38.8-98-51.5-18-6.6-52.5-16.7-63.2-18.4-2.2-.3-4.1-.7-4.4-.9-.3-.2-4.6-1.1-9.5-1.9-5-.9-9.9-1.8-11-2-1.1-.2-4.1-.6-6.6-1s-5.7-.9-7-1.1c-2.7-.4-17.8-2.2-25.4-2.9-25.9-2.6-79.7-2.7-101.5-.1-1.9.2-6.6.6-10.5 1-3.8.3-8.3.8-10 1-1.6.3-8.4 1.2-15 2.1-14.6 1.9-39.3 6.5-53.5 10-5.8 1.4-11.6 2.8-13 3-5.2 1-34.1 9.5-49 14.5-28.8 9.5-63.1 23.9-89.5 37.4-19.2 9.8-31.5 16.7-46 25.8-6 3.8-11.9 7.5-13 8.1-1.1.6-2.2 1.3-2.5 1.6-.3.3-3.9 2.7-8 5.5-40.1 26.5-83.3 65.4-115.2 103.5-19.6 23.5-40.8 55.3-54.8 82.2-1.3 2.6-2.5 4.6-2.6 4.5-.1-.1-1.9-3.6-4.1-7.7-5.7-10.6-7.2-13.3-14.8-25.6-5.6-8.9-17.4-26.7-20.7-30.9-.5-.6-4.5-5.7-9-11.5-19.2-24.7-46.1-52.9-70.3-73.5-3.8-3.3-7.2-6.2-7.5-6.5-1.6-1.6-16.7-13.4-25.9-20.1-5.8-4.3-11-8.2-11.6-8.7-1.3-1-24.4-16.3-27-17.9-15.4-9.4-23.3-14.1-24.5-14.6-.8-.4-3.1-1.7-5-2.9-13.5-8.2-49.8-25.4-76.2-36.2-23.7-9.6-74.6-25.7-95.3-30.1-23.6-4.9-43.2-8.6-53.5-10-2.5-.3-5.6-.8-7-1-1.4-.2-5.2-.7-8.5-1.1-3.3-.3-7.2-.7-8.8-.9-1.5-.2-6.2-.7-10.5-1-4.2-.4-9-.9-10.7-1.1-3.5-.5-70.1-1.4-70.6-1z"/></svg>